<svg xmlns="http://www.w3.org/2000/svg" xmlns:xlink="http://www.w3.org/1999/xlink" id="body_1" preserveAspectRatio="xMinYMin meet" viewBox="0 0 793 1123"><defs><clipPath id="1"><path d="M0 842L0 -0.03997803L0 -0.03997803L595.56 -0.03997803L595.56 -0.03997803L595.56 842L595.56 842L0 842z" /></clipPath><clipPath id="2"><path d="M440.25 166.26L544.4 166.26L544.4 166.26L544.4 43.56L544.4 43.56L440.25 43.56z" /></clipPath><clipPath id="3"><path d="M8.875E-06 842L595.56 842L595.56 842L595.56 -0.03997803L595.56 -0.03997803L8.875E-06 -0.03997803z" /></clipPath><clipPath id="4"><path d="M8.875E-06 842L595.56 842L595.56 842L595.56 -0.03997803L595.56 -0.03997803L8.875E-06 -0.03997803z" /></clipPath><clipPath id="5"><path d="M31.8 193.66L43.08 193.66L43.08 193.66L43.08 174.34L43.08 174.34L31.8 174.34z" /></clipPath><clipPath id="6"><path d="M31.8 193.66L43.08 193.66L43.08 193.66L43.08 174.34L43.08 174.34L31.8 174.34z" /></clipPath><clipPath id="7"><path d="M43.08 193.66L127.104 193.66L127.104 193.66L127.104 174.34L127.104 174.34L43.08 174.34z" /></clipPath><clipPath id="8"><path d="M43.08 193.66L127.104 193.66L127.104 193.66L127.104 174.34L127.104 174.34L43.08 174.34z" /></clipPath><clipPath id="9"><path d="M43.08 193.66L127.104 193.66L127.104 193.66L127.104 174.34L127.104 174.34L43.08 174.34z" /></clipPath><clipPath id="10"><path d="M127.1 193.66L559.68 193.66L559.68 193.66L559.68 174.34L559.68 174.34L127.1 174.34z" /></clipPath><clipPath id="11"><path d="M127.1 193.66L559.68 193.66L559.68 193.66L559.68 174.34L559.68 174.34L127.1 174.34z" /></clipPath><clipPath id="12"><path d="M31.8 277.21L42.36 277.21L42.36 277.21L42.36 194.386L42.36 194.386L31.8 194.386z" /></clipPath><clipPath id="13"><path d="M31.8 277.21L42.36 277.21L42.36 277.21L42.36 194.386L42.36 194.386L31.8 194.386z" /></clipPath><clipPath id="14"><path d="M43.8 277.21L559.68 277.21L559.68 277.21L559.68 194.386L559.68 194.386L43.8 194.386z" /></clipPath><clipPath id="15"><path d="M43.8 277.21L559.68 277.21L559.68 277.21L559.68 194.386L559.68 194.386L43.8 194.386z" /></clipPath><clipPath id="16"><path d="M43.8 277.21L559.68 277.21L559.68 277.21L559.68 194.386L559.68 194.386L43.8 194.386z" /></clipPath><clipPath id="17"><path d="M43.8 277.21L559.68 277.21L559.68 277.21L559.68 194.386L559.68 194.386L43.8 194.386z" /></clipPath><clipPath id="18"><path d="M43.8 277.21L559.68 277.21L559.68 277.21L559.68 194.386L559.68 194.386L43.8 194.386z" /></clipPath><clipPath id="19"><path d="M43.8 277.21L559.68 277.21L559.68 277.21L559.68 194.386L559.68 194.386L43.8 194.386z" /></clipPath><clipPath id="20"><path d="M43.8 277.21L559.68 277.21L559.68 277.21L559.68 194.386L559.68 194.386L43.8 194.386z" /></clipPath><clipPath id="21"><path d="M43.8 277.21L559.68 277.21L559.68 277.21L559.68 194.386L559.68 194.386L43.8 194.386z" /></clipPath><clipPath id="22"><path d="M43.8 277.21L559.68 277.21L559.68 277.21L559.68 194.386L559.68 194.386L43.8 194.386z" /></clipPath><clipPath id="23"><path d="M43.8 277.21L559.68 277.21L559.68 277.21L559.68 194.386L559.68 194.386L43.8 194.386z" /></clipPath><clipPath id="24"><path d="M43.8 277.21L559.68 277.21L559.68 277.21L559.68 194.386L559.68 194.386L43.8 194.386z" /></clipPath><clipPath id="25"><path d="M43.8 277.21L559.68 277.21L559.68 277.21L559.68 194.386L559.68 194.386L43.8 194.386z" /></clipPath><clipPath id="26"><path d="M43.8 277.21L559.68 277.21L559.68 277.21L559.68 194.386L559.68 194.386L43.8 194.386z" /></clipPath><clipPath id="27"><path d="M43.8 277.21L559.68 277.21L559.68 277.21L559.68 194.386L559.68 194.386L43.8 194.386z" /></clipPath><clipPath id="28"><path d="M43.8 277.21L559.68 277.21L559.68 277.21L559.68 194.386L559.68 194.386L43.8 194.386z" /></clipPath><clipPath id="29"><path d="M43.8 277.21L559.68 277.21L559.68 277.21L559.68 194.386L559.68 194.386L43.8 194.386z" /></clipPath><clipPath id="30"><path d="M43.8 277.21L559.68 277.21L559.68 277.21L559.68 194.386L559.68 194.386L43.8 194.386z" /></clipPath><clipPath id="31"><path d="M43.8 277.21L559.68 277.21L559.68 277.21L559.68 194.386L559.68 194.386L43.8 194.386z" /></clipPath><clipPath id="32"><path d="M43.8 277.21L559.68 277.21L559.68 277.21L559.68 194.386L559.68 194.386L43.8 194.386z" /></clipPath><clipPath id="33"><path d="M43.8 277.21L559.68 277.21L559.68 277.21L559.68 194.386L559.68 194.386L43.8 194.386z" /></clipPath><clipPath id="34"><path d="M43.8 277.21L559.68 277.21L559.68 277.21L559.68 194.386L559.68 194.386L43.8 194.386z" /></clipPath><clipPath id="35"><path d="M43.8 277.21L559.68 277.21L559.68 277.21L559.68 194.386L559.68 194.386L43.8 194.386z" /></clipPath><clipPath id="36"><path d="M43.8 277.21L559.68 277.21L559.68 277.21L559.68 194.386L559.68 194.386L43.8 194.386z" /></clipPath><clipPath id="37"><path d="M43.8 277.21L559.68 277.21L559.68 277.21L559.68 194.386L559.68 194.386L43.8 194.386z" /></clipPath><clipPath id="38"><path d="M43.8 277.21L559.68 277.21L559.68 277.21L559.68 194.386L559.68 194.386L43.8 194.386z" /></clipPath><clipPath id="39"><path d="M43.8 277.21L559.68 277.21L559.68 277.21L559.68 194.386L559.68 194.386L43.8 194.386z" /></clipPath><clipPath id="40"><path d="M43.8 277.21L559.68 277.21L559.68 277.21L559.68 194.386L559.68 194.386L43.8 194.386z" /></clipPath><clipPath id="41"><path d="M43.8 277.21L559.68 277.21L559.68 277.21L559.68 194.386L559.68 194.386L43.8 194.386z" /></clipPath><clipPath id="42"><path d="M43.8 277.21L559.68 277.21L559.68 277.21L559.68 194.386L559.68 194.386L43.8 194.386z" /></clipPath><clipPath id="43"><path d="M43.8 277.21L559.68 277.21L559.68 277.21L559.68 194.386L559.68 194.386L43.8 194.386z" /></clipPath><clipPath id="44"><path d="M43.8 277.21L559.68 277.21L559.68 277.21L559.68 194.386L559.68 194.386L43.8 194.386z" /></clipPath><clipPath id="45"><path d="M43.8 277.21L559.68 277.21L559.68 277.21L559.68 194.386L559.68 194.386L43.8 194.386z" /></clipPath><clipPath id="46"><path d="M43.8 277.21L559.68 277.21L559.68 277.21L559.68 194.386L559.68 194.386L43.8 194.386z" /></clipPath><clipPath id="47"><path d="M43.8 277.21L559.68 277.21L559.68 277.21L559.68 194.386L559.68 194.386L43.8 194.386z" /></clipPath><clipPath id="48"><path d="M43.8 277.21L559.68 277.21L559.68 277.21L559.68 194.386L559.68 194.386L43.8 194.386z" /></clipPath><clipPath id="49"><path d="M43.8 277.21L559.68 277.21L559.68 277.21L559.68 194.386L559.68 194.386L43.8 194.386z" /></clipPath><clipPath id="50"><path d="M43.8 277.21L559.68 277.21L559.68 277.21L559.68 194.386L559.68 194.386L43.8 194.386z" /></clipPath><clipPath id="51"><path d="M31.8 296.41L43.08 296.41L43.08 296.41L43.08 277.21L43.08 277.21L31.8 277.21z" /></clipPath><clipPath id="52"><path d="M31.8 296.41L43.08 296.41L43.08 296.41L43.08 277.21L43.08 277.21L31.8 277.21z" /></clipPath><clipPath id="53"><path d="M43.08 296.41L127.104 296.41L127.104 296.41L127.104 277.21L127.104 277.21L43.08 277.21z" /></clipPath><clipPath id="54"><path d="M43.08 296.41L127.104 296.41L127.104 296.41L127.104 277.21L127.104 277.21L43.08 277.21z" /></clipPath><clipPath id="55"><path d="M43.08 296.41L127.104 296.41L127.104 296.41L127.104 277.21L127.104 277.21L43.08 277.21z" /></clipPath><clipPath id="56"><path d="M127.1 296.41L559.68 296.41L559.68 296.41L559.68 277.21L559.68 277.21L127.1 277.21z" /></clipPath><clipPath id="57"><path d="M127.1 296.41L559.68 296.41L559.68 296.41L559.68 277.21L559.68 277.21L127.1 277.21z" /></clipPath><clipPath id="58"><path d="M31.8 424.71L42.36 424.71L42.36 424.71L42.36 297.25L42.36 297.25L31.8 297.25z" /></clipPath><clipPath id="59"><path d="M31.8 424.71L42.36 424.71L42.36 424.71L42.36 297.25L42.36 297.25L31.8 297.25z" /></clipPath><clipPath id="60"><path d="M43.8 424.71L559.68 424.71L559.68 424.71L559.68 297.25L559.68 297.25L43.8 297.25z" /></clipPath><clipPath id="61"><path d="M43.8 424.71L559.68 424.71L559.68 424.71L559.68 297.25L559.68 297.25L43.8 297.25z" /></clipPath><clipPath id="62"><path d="M43.8 424.71L559.68 424.71L559.68 424.71L559.68 297.25L559.68 297.25L43.8 297.25z" /></clipPath><clipPath id="63"><path d="M43.8 424.71L559.68 424.71L559.68 424.71L559.68 297.25L559.68 297.25L43.8 297.25z" /></clipPath><clipPath id="64"><path d="M43.8 424.71L559.68 424.71L559.68 424.71L559.68 297.25L559.68 297.25L43.8 297.25z" /></clipPath><clipPath id="65"><path d="M43.8 424.71L559.68 424.71L559.68 424.71L559.68 297.25L559.68 297.25L43.8 297.25z" /></clipPath><clipPath id="66"><path d="M43.8 424.71L559.68 424.71L559.68 424.71L559.68 297.25L559.68 297.25L43.8 297.25z" /></clipPath><clipPath id="67"><path d="M43.8 424.71L559.68 424.71L559.68 424.71L559.68 297.25L559.68 297.25L43.8 297.25z" /></clipPath><clipPath id="68"><path d="M43.8 424.71L559.68 424.71L559.68 424.71L559.68 297.25L559.68 297.25L43.8 297.25z" /></clipPath><clipPath id="69"><path d="M43.8 424.71L559.68 424.71L559.68 424.71L559.68 297.25L559.68 297.25L43.8 297.25z" /></clipPath><clipPath id="70"><path d="M43.8 424.71L559.68 424.71L559.68 424.71L559.68 297.25L559.68 297.25L43.8 297.25z" /></clipPath><clipPath id="71"><path d="M43.8 424.71L559.68 424.71L559.68 424.71L559.68 297.25L559.68 297.25L43.8 297.25z" /></clipPath><clipPath id="72"><path d="M43.8 424.71L559.68 424.71L559.68 424.71L559.68 297.25L559.68 297.25L43.8 297.25z" /></clipPath><clipPath id="73"><path d="M43.8 424.71L559.68 424.71L559.68 424.71L559.68 297.25L559.68 297.25L43.8 297.25z" /></clipPath><clipPath id="74"><path d="M43.8 424.71L559.68 424.71L559.68 424.71L559.68 297.25L559.68 297.25L43.8 297.25z" /></clipPath><clipPath id="75"><path d="M43.8 424.71L559.68 424.71L559.68 424.71L559.68 297.25L559.68 297.25L43.8 297.25z" /></clipPath><clipPath id="76"><path d="M43.8 424.71L559.68 424.71L559.68 424.71L559.68 297.25L559.68 297.25L43.8 297.25z" /></clipPath><clipPath id="77"><path d="M43.8 424.71L559.68 424.71L559.68 424.71L559.68 297.25L559.68 297.25L43.8 297.25z" /></clipPath><clipPath id="78"><path d="M43.8 424.71L559.68 424.71L559.68 424.71L559.68 297.25L559.68 297.25L43.8 297.25z" /></clipPath><clipPath id="79"><path d="M43.8 424.71L559.68 424.71L559.68 424.71L559.68 297.25L559.68 297.25L43.8 297.25z" /></clipPath><clipPath id="80"><path d="M43.8 424.71L559.68 424.71L559.68 424.71L559.68 297.25L559.68 297.25L43.8 297.25z" /></clipPath><clipPath id="81"><path d="M43.8 424.71L559.68 424.71L559.68 424.71L559.68 297.25L559.68 297.25L43.8 297.25z" /></clipPath><clipPath id="82"><path d="M43.8 424.71L559.68 424.71L559.68 424.71L559.68 297.25L559.68 297.25L43.8 297.25z" /></clipPath><clipPath id="83"><path d="M43.8 424.71L559.68 424.71L559.68 424.71L559.68 297.25L559.68 297.25L43.8 297.25z" /></clipPath><clipPath id="84"><path d="M43.8 424.71L559.68 424.71L559.68 424.71L559.68 297.25L559.68 297.25L43.8 297.25z" /></clipPath><clipPath id="85"><path d="M43.8 424.71L559.68 424.71L559.68 424.71L559.68 297.25L559.68 297.25L43.8 297.25z" /></clipPath><clipPath id="86"><path d="M31.8 444.03L43.08 444.03L43.08 444.03L43.08 424.71L43.08 424.71L31.8 424.71z" /></clipPath><clipPath id="87"><path d="M31.8 444.03L43.08 444.03L43.08 444.03L43.08 424.71L43.08 424.71L31.8 424.71z" /></clipPath><clipPath id="88"><path d="M43.08 444.03L127.104 444.03L127.104 444.03L127.104 424.71L127.104 424.71L43.08 424.71z" /></clipPath><clipPath id="89"><path d="M43.08 444.03L127.104 444.03L127.104 444.03L127.104 424.71L127.104 424.71L43.08 424.71z" /></clipPath><clipPath id="90"><path d="M43.08 444.03L127.104 444.03L127.104 444.03L127.104 424.71L127.104 424.71L43.08 424.71z" /></clipPath><clipPath id="91"><path d="M127.1 444.03L559.68 444.03L559.68 444.03L559.68 424.71L559.68 424.71L127.1 424.71z" /></clipPath><clipPath id="92"><path d="M127.1 444.03L559.68 444.03L559.68 444.03L559.68 424.71L559.68 424.71L127.1 424.71z" /></clipPath><clipPath id="93"><path d="M31.8 583.71L42.36 583.71L42.36 583.71L42.36 444.87L42.36 444.87L31.8 444.87z" /></clipPath><clipPath id="94"><path d="M31.8 583.71L42.36 583.71L42.36 583.71L42.36 444.87L42.36 444.87L31.8 444.87z" /></clipPath><clipPath id="95"><path d="M43.8 583.71L559.68 583.71L559.68 583.71L559.68 444.87L559.68 444.87L43.8 444.87z" /></clipPath><clipPath id="96"><path d="M43.8 583.71L559.68 583.71L559.68 583.71L559.68 444.87L559.68 444.87L43.8 444.87z" /></clipPath><clipPath id="97"><path d="M31.8 603.06L43.08 603.06L43.08 603.06L43.08 583.716L43.08 583.716L31.8 583.716z" /></clipPath><clipPath id="98"><path d="M31.8 603.06L43.08 603.06L43.08 603.06L43.08 583.716L43.08 583.716L31.8 583.716z" /></clipPath><clipPath id="99"><path d="M43.08 603.06L127.104 603.06L127.104 603.06L127.104 583.716L127.104 583.716L43.08 583.716z" /></clipPath><clipPath id="100"><path d="M43.08 603.06L127.104 603.06L127.104 603.06L127.104 583.716L127.104 583.716L43.08 583.716z" /></clipPath><clipPath id="101"><path d="M43.08 603.06L127.104 603.06L127.104 603.06L127.104 583.716L127.104 583.716L43.08 583.716z" /></clipPath><clipPath id="102"><path d="M127.1 603.06L559.68 603.06L559.68 603.06L559.68 583.716L559.68 583.716L127.1 583.716z" /></clipPath><clipPath id="103"><path d="M127.1 603.06L559.68 603.06L559.68 603.06L559.68 583.716L559.68 583.716L127.1 583.716z" /></clipPath><clipPath id="104"><path d="M31.8 707.34L42.36 707.34L42.36 707.34L42.36 603.78L42.36 603.78L31.8 603.78z" /></clipPath><clipPath id="105"><path d="M31.8 707.34L42.36 707.34L42.36 707.34L42.36 603.78L42.36 603.78L31.8 603.78z" /></clipPath><clipPath id="106"><path d="M43.8 707.34L559.68 707.34L559.68 707.34L559.68 603.78L559.68 603.78L43.8 603.78z" /></clipPath><clipPath id="107"><path d="M43.8 707.34L559.68 707.34L559.68 707.34L559.68 603.78L559.68 603.78L43.8 603.78z" /></clipPath><clipPath id="108"><path d="M31.8 726.66L43.08 726.66L43.08 726.66L43.08 707.34L43.08 707.34L31.8 707.34z" /></clipPath><clipPath id="109"><path d="M31.8 726.66L43.08 726.66L43.08 726.66L43.08 707.34L43.08 707.34L31.8 707.34z" /></clipPath><clipPath id="110"><path d="M43.08 726.66L127.104 726.66L127.104 726.66L127.104 707.34L127.104 707.34L43.08 707.34z" /></clipPath><clipPath id="111"><path d="M43.08 726.66L127.104 726.66L127.104 726.66L127.104 707.34L127.104 707.34L43.08 707.34z" /></clipPath><clipPath id="112"><path d="M43.08 726.66L127.104 726.66L127.104 726.66L127.104 707.34L127.104 707.34L43.08 707.34z" /></clipPath><clipPath id="113"><path d="M127.1 726.66L559.68 726.66L559.68 726.66L559.68 707.34L559.68 707.34L127.1 707.34z" /></clipPath><clipPath id="114"><path d="M127.1 726.66L559.68 726.66L559.68 726.66L559.68 707.34L559.68 707.34L127.1 707.34z" /></clipPath><clipPath id="115"><path d="M31.8 803L42.36 803L42.36 803L42.36 727.376L42.36 727.376L31.8 727.376z" /></clipPath><clipPath id="116"><path d="M31.8 803L42.36 803L42.36 803L42.36 727.376L42.36 727.376L31.8 727.376z" /></clipPath><clipPath id="117"><path d="M43.8 803L559.68 803L559.68 803L559.68 727.376L559.68 727.376L43.8 727.376z" /></clipPath><clipPath id="118"><path d="M43.8 803L559.68 803L559.68 803L559.68 727.376L559.68 727.376L43.8 727.376z" /></clipPath><clipPath id="119"><path d="M8.875E-06 842L595.56 842L595.56 842L595.56 -0.03997803L595.56 -0.03997803L8.875E-06 -0.03997803z" /></clipPath><clipPath id="120"><path d="M16.2 164.98L432.94 164.98L432.94 164.98L432.94 -0.04003906L432.94 -0.04003906L16.2 -0.04003906z" /></clipPath><clipPath id="121"><path d="M26.04 121.78L216.89 121.78L216.89 121.78L216.89 -0.03997803L216.89 -0.03997803L26.04 -0.03997803z" /></clipPath><clipPath id="122"><path d="M26.04 121.78L216.89 121.78L216.89 121.78L216.89 -0.03997803L216.89 -0.03997803L26.04 -0.03997803z" /></clipPath><clipPath id="123"><path d="M26.04 121.78L216.89 121.78L216.89 121.78L216.89 -0.03997803L216.89 -0.03997803L26.04 -0.03997803z" /></clipPath><clipPath id="124"><path d="M26.04 121.78L216.89 121.78L216.89 121.78L216.89 -0.03997803L216.89 -0.03997803L26.04 -0.03997803z" /></clipPath><clipPath id="125"><path d="M26.04 121.78L216.89 121.78L216.89 121.78L216.89 -0.03997803L216.89 -0.03997803L26.04 -0.03997803z" /></clipPath><clipPath id="126"><path d="M26.04 121.78L216.89 121.78L216.89 121.78L216.89 -0.03997803L216.89 -0.03997803L26.04 -0.03997803z" /></clipPath><clipPath id="127"><path d="M26.04 121.78L216.89 121.78L216.89 121.78L216.89 -0.03997803L216.89 -0.03997803L26.04 -0.03997803z" /></clipPath><clipPath id="128"><path d="M26.04 121.78L216.89 121.78L216.89 121.78L216.89 -0.03997803L216.89 -0.03997803L26.04 -0.03997803z" /></clipPath><clipPath id="129"><path d="M216.89 121.78L423.1 121.78L423.1 121.78L423.1 -0.03997803L423.1 -0.03997803L216.89 -0.03997803z" /></clipPath><clipPath id="130"><path d="M216.89 121.78L423.1 121.78L423.1 121.78L423.1 -0.03997803L423.1 -0.03997803L216.89 -0.03997803z" /></clipPath><clipPath id="131"><path d="M26.04 142.78L216.89 142.78L216.89 142.78L216.89 122.6201L216.89 122.6201L26.04 122.6201z" /></clipPath><clipPath id="132"><path d="M26.04 142.78L216.89 142.78L216.89 142.78L216.89 122.6201L216.89 122.6201L26.04 122.6201z" /></clipPath><clipPath id="133"><path d="M26.04 142.78L216.89 142.78L216.89 142.78L216.89 122.6201L216.89 122.6201L26.04 122.6201z" /></clipPath><clipPath id="134"><path d="M26.04 142.78L216.89 142.78L216.89 142.78L216.89 122.6201L216.89 122.6201L26.04 122.6201z" /></clipPath><clipPath id="135"><path d="M26.04 142.78L216.89 142.78L216.89 142.78L216.89 122.6201L216.89 122.6201L26.04 122.6201z" /></clipPath><clipPath id="136"><path d="M26.04 142.78L216.89 142.78L216.89 142.78L216.89 122.6201L216.89 122.6201L26.04 122.6201z" /></clipPath><clipPath id="137"><path d="M216.89 142.78L423.1 142.78L423.1 142.78L423.1 122.6201L423.1 122.6201L216.89 122.6201z" /></clipPath><clipPath id="138"><path d="M216.89 142.78L423.1 142.78L423.1 142.78L423.1 122.6201L423.1 122.6201L216.89 122.6201z" /></clipPath><clipPath id="139"><path d="M216.89 142.78L423.1 142.78L423.1 142.78L423.1 122.6201L423.1 122.6201L216.89 122.6201z" /></clipPath><clipPath id="140"><path d="M216.89 142.78L423.1 142.78L423.1 142.78L423.1 122.6201L423.1 122.6201L216.89 122.6201z" /></clipPath><clipPath id="141"><path d="M216.89 142.78L423.1 142.78L423.1 142.78L423.1 122.6201L423.1 122.6201L216.89 122.6201z" /></clipPath><clipPath id="142"><path d="M216.89 142.78L423.1 142.78L423.1 142.78L423.1 122.6201L423.1 122.6201L216.89 122.6201z" /></clipPath><clipPath id="143"><path d="M216.89 142.78L423.1 142.78L423.1 142.78L423.1 122.6201L423.1 122.6201L216.89 122.6201z" /></clipPath><clipPath id="144"><path d="M216.89 142.78L423.1 142.78L423.1 142.78L423.1 122.6201L423.1 122.6201L216.89 122.6201z" /></clipPath><clipPath id="145"><path d="M216.89 142.78L423.1 142.78L423.1 142.78L423.1 122.6201L423.1 122.6201L216.89 122.6201z" /></clipPath><clipPath id="146"><path d="M216.89 142.78L423.1 142.78L423.1 142.78L423.1 122.6201L423.1 122.6201L216.89 122.6201z" /></clipPath><clipPath id="147"><path d="M216.89 142.78L423.1 142.78L423.1 142.78L423.1 122.6201L423.1 122.6201L216.89 122.6201z" /></clipPath><clipPath id="148"><path d="M26.04 164.26L216.89 164.26L216.89 164.26L216.89 143.5L216.89 143.5L26.04 143.5z" /></clipPath><clipPath id="149"><path d="M26.04 164.26L216.89 164.26L216.89 164.26L216.89 143.5L216.89 143.5L26.04 143.5z" /></clipPath><clipPath id="150"><path d="M26.04 164.26L216.89 164.26L216.89 164.26L216.89 143.5L216.89 143.5L26.04 143.5z" /></clipPath><clipPath id="151"><path d="M26.04 164.26L216.89 164.26L216.89 164.26L216.89 143.5L216.89 143.5L26.04 143.5z" /></clipPath><clipPath id="152"><path d="M26.04 164.26L216.89 164.26L216.89 164.26L216.89 143.5L216.89 143.5L26.04 143.5z" /></clipPath><clipPath id="153"><path d="M26.04 164.26L216.89 164.26L216.89 164.26L216.89 143.5L216.89 143.5L26.04 143.5z" /></clipPath><clipPath id="154"><path d="M26.04 164.26L216.89 164.26L216.89 164.26L216.89 143.5L216.89 143.5L26.04 143.5z" /></clipPath><clipPath id="155"><path d="M26.04 164.26L216.89 164.26L216.89 164.26L216.89 143.5L216.89 143.5L26.04 143.5z" /></clipPath><clipPath id="156"><path d="M216.89 164.26L423.1 164.26L423.1 164.26L423.1 143.5L423.1 143.5L216.89 143.5z" /></clipPath><clipPath id="157"><path d="M216.89 164.26L423.1 164.26L423.1 164.26L423.1 143.5L423.1 143.5L216.89 143.5z" /></clipPath><clipPath id="158"><path d="M216.89 164.26L423.1 164.26L423.1 164.26L423.1 143.5L423.1 143.5L216.89 143.5z" /></clipPath><clipPath id="159"><path d="M216.89 164.26L423.1 164.26L423.1 164.26L423.1 143.5L423.1 143.5L216.89 143.5z" /></clipPath><clipPath id="160"><path d="M216.89 164.26L423.1 164.26L423.1 164.26L423.1 143.5L423.1 143.5L216.89 143.5z" /></clipPath><clipPath id="161"><path d="M216.89 164.26L423.1 164.26L423.1 164.26L423.1 143.5L423.1 143.5L216.89 143.5z" /></clipPath><clipPath id="162"><path d="M216.89 164.26L423.1 164.26L423.1 164.26L423.1 143.5L423.1 143.5L216.89 143.5z" /></clipPath><clipPath id="163"><path d="M216.89 164.26L423.1 164.26L423.1 164.26L423.1 143.5L423.1 143.5L216.89 143.5z" /></clipPath></defs><g transform="matrix(1.333333 0 0 1.333333 0 0)"><g><g clip-path="url(#1)"><path transform="matrix(1 0 0 -1 0 842)" d="M83.05 787.94L27.7 818.04L27.7 818.04L27.7 842.04L27.7 842.04L138.35 842.04L138.35 842.04L138.35 818.04L138.35 818.04L83.05 787.94z" stroke="none" fill="#5568AF" fill-rule="evenodd" /><g clip-path="url(#2)"><g transform="matrix(0.5155941 0 0 0.5155462 440.25 43.56)"><g transform="matrix(1 0 0 1 0 0)"><image x="0" y="0" xlink:href="img_01.png" width="202" height="238" /></g></g></g><g clip-path="url(#3)"></g><g clip-path="url(#4)"></g><path transform="matrix(1 0 0 -1 0 842)" d="M31.8 648.34L43.08 648.34L43.08 648.34L43.08 667.66L43.08 667.66L31.8 667.66z" stroke="none" fill="#5568AF" fill-rule="evenodd" /><g clip-path="url(#5)"><path transform="matrix(1 0 0 -1 0 842)" d="M31.8 653.86L43.08 653.86L43.08 653.86L43.08 667.66L43.08 667.66L31.8 667.66z" stroke="none" fill="#5568AF" fill-rule="evenodd" /><g clip-path="url(#6)"></g></g><path transform="matrix(1 0 0 -1 0 842)" d="M43.08 648.34L127.104 648.34L127.104 648.34L127.104 667.66L127.104 667.66L43.08 667.66z" stroke="none" fill="#5568AF" fill-rule="evenodd" /><g clip-path="url(#7)"><path transform="matrix(1 0 0 -1 0 842)" d="M43.08 649.3L127.104 649.3L127.104 649.3L127.104 667.66L127.104 667.66L43.08 667.66z" stroke="none" fill="#5568AF" fill-rule="evenodd" /><g clip-path="url(#8)"></g><g clip-path="url(#9)"></g></g><g clip-path="url(#10)"><g clip-path="url(#11)"></g></g><g clip-path="url(#12)"><g clip-path="url(#13)"></g></g><g clip-path="url(#14)"><g clip-path="url(#15)"></g><g clip-path="url(#16)"></g><g clip-path="url(#17)"></g><g clip-path="url(#18)"></g><g clip-path="url(#19)"></g><g clip-path="url(#20)"></g><g clip-path="url(#21)"></g><g clip-path="url(#22)"></g><g clip-path="url(#23)"></g><g clip-path="url(#24)"></g><g clip-path="url(#25)"></g><g clip-path="url(#26)"></g><g clip-path="url(#27)"></g><g clip-path="url(#28)"></g><g clip-path="url(#29)"></g><g clip-path="url(#30)"></g><g clip-path="url(#31)"></g><g clip-path="url(#32)"></g><g clip-path="url(#33)"></g><g clip-path="url(#34)"></g><g clip-path="url(#35)"></g><g clip-path="url(#36)"></g><g clip-path="url(#37)"></g><g clip-path="url(#38)"></g><g clip-path="url(#39)"></g><g clip-path="url(#40)"></g><g clip-path="url(#41)"></g><g clip-path="url(#42)"></g><g clip-path="url(#43)"></g><g clip-path="url(#44)"></g><g clip-path="url(#45)"></g><g clip-path="url(#46)"></g><g clip-path="url(#47)"></g><g clip-path="url(#48)"></g><g clip-path="url(#49)"></g><g clip-path="url(#50)"></g></g><path transform="matrix(1 0 0 -1 0 842)" d="M31.8 647.62L42.48 647.62L42.48 647.62L42.48 648.34L42.48 648.34L31.8 648.34z" stroke="none" fill="#5568AF" fill-rule="evenodd" /><path transform="matrix(1 0 0 -1 0 842)" d="M42.48 647.62L43.2 647.62L43.2 647.62L43.2 648.34L43.2 648.34L42.48 648.34z" stroke="none" fill="#5568AF" fill-rule="evenodd" /><path transform="matrix(1 0 0 -1 0 842)" d="M43.2 647.62L43.92 647.62L43.92 647.62L43.92 648.34L43.92 648.34L43.2 648.34z" stroke="none" fill="#5568AF" fill-rule="evenodd" /><path transform="matrix(1 0 0 -1 0 842)" d="M43.92 647.62L44.64 647.62L44.64 647.62L44.64 648.34L44.64 648.34L43.92 648.34z" stroke="none" fill="#5568AF" fill-rule="evenodd" /><path transform="matrix(1 0 0 -1 0 842)" d="M44.64 647.62L127.104 647.62L127.104 647.62L127.104 648.34L127.104 648.34L44.64 648.34z" stroke="none" fill="#5568AF" fill-rule="evenodd" /><path transform="matrix(1 0 0 -1 0 842)" d="M127.1 647.62L127.82 647.62L127.82 647.62L127.82 648.34L127.82 648.34L127.1 648.34z" stroke="none" fill="#5568AF" fill-rule="evenodd" /><path transform="matrix(1 0 0 -1 0 842)" d="M127.82 647.62L559.68 647.62L559.68 647.62L559.68 648.34L559.68 648.34L127.82 648.34z" stroke="none" fill="#5568AF" fill-rule="evenodd" /><path transform="matrix(1 0 0 -1 0 842)" d="M42.48 564.79L43.92 564.79L43.92 564.79L43.92 647.614L43.92 647.614L42.48 647.614z" stroke="none" fill="#5568AF" fill-rule="evenodd" /><path transform="matrix(1 0 0 -1 0 842)" d="M31.8 545.59L43.08 545.59L43.08 545.59L43.08 564.79L43.08 564.79L31.8 564.79z" stroke="none" fill="#5568AF" fill-rule="evenodd" /><g clip-path="url(#51)"><path transform="matrix(1 0 0 -1 0 842)" d="M31.8 550.99L43.08 550.99L43.08 550.99L43.08 564.79L43.08 564.79L31.8 564.79z" stroke="none" fill="#5568AF" fill-rule="evenodd" /><g clip-path="url(#52)"></g></g><path transform="matrix(1 0 0 -1 0 842)" d="M43.08 545.59L127.104 545.59L127.104 545.59L127.104 564.79L127.104 564.79L43.08 564.79z" stroke="none" fill="#5568AF" fill-rule="evenodd" /><g clip-path="url(#53)"><path transform="matrix(1 0 0 -1 0 842)" d="M43.08 546.55L127.104 546.55L127.104 546.55L127.104 564.79L127.104 564.79L43.08 564.79z" stroke="none" fill="#5568AF" fill-rule="evenodd" /><g clip-path="url(#54)"></g><g clip-path="url(#55)"></g></g><g clip-path="url(#56)"><g clip-path="url(#57)"></g></g><g clip-path="url(#58)"><g clip-path="url(#59)"></g></g><g clip-path="url(#60)"><g clip-path="url(#61)"></g><g clip-path="url(#62)"></g><g clip-path="url(#63)"></g><g clip-path="url(#64)"></g><g clip-path="url(#65)"></g><g clip-path="url(#66)"></g><g clip-path="url(#67)"></g><g clip-path="url(#68)"></g><g clip-path="url(#69)"></g><g clip-path="url(#70)"></g><g clip-path="url(#71)"></g><g clip-path="url(#72)"></g><g clip-path="url(#73)"></g><g clip-path="url(#74)"></g><g clip-path="url(#75)"></g><g clip-path="url(#76)"></g><g clip-path="url(#77)"></g><g clip-path="url(#78)"></g><g clip-path="url(#79)"></g><g clip-path="url(#80)"></g><g clip-path="url(#81)"></g><g clip-path="url(#82)"></g><g clip-path="url(#83)"></g><g clip-path="url(#84)"></g><g clip-path="url(#85)"></g></g><path transform="matrix(1 0 0 -1 0 842)" d="M31.8 544.87L42.48 544.87L42.48 544.87L42.48 545.59L42.48 545.59L31.8 545.59z" stroke="none" fill="#5568AF" fill-rule="evenodd" /><path transform="matrix(1 0 0 -1 0 842)" d="M42.48 544.87L43.2 544.87L43.2 544.87L43.2 545.59L43.2 545.59L42.48 545.59z" stroke="none" fill="#5568AF" fill-rule="evenodd" /><path transform="matrix(1 0 0 -1 0 842)" d="M43.2 544.87L43.92 544.87L43.92 544.87L43.92 545.59L43.92 545.59L43.2 545.59z" stroke="none" fill="#5568AF" fill-rule="evenodd" /><path transform="matrix(1 0 0 -1 0 842)" d="M43.92 544.87L44.64 544.87L44.64 544.87L44.64 545.59L44.64 545.59L43.92 545.59z" stroke="none" fill="#5568AF" fill-rule="evenodd" /><path transform="matrix(1 0 0 -1 0 842)" d="M44.64 544.87L127.104 544.87L127.104 544.87L127.104 545.59L127.104 545.59L44.64 545.59z" stroke="none" fill="#5568AF" fill-rule="evenodd" /><path transform="matrix(1 0 0 -1 0 842)" d="M127.1 544.87L127.82 544.87L127.82 544.87L127.82 545.59L127.82 545.59L127.1 545.59z" stroke="none" fill="#5568AF" fill-rule="evenodd" /><path transform="matrix(1 0 0 -1 0 842)" d="M127.82 544.87L559.68 544.87L559.68 544.87L559.68 545.59L559.68 545.59L127.82 545.59z" stroke="none" fill="#5568AF" fill-rule="evenodd" /><path transform="matrix(1 0 0 -1 0 842)" d="M42.48 417.29L43.92 417.29L43.92 417.29L43.92 544.87L43.92 544.87L42.48 544.87z" stroke="none" fill="#5568AF" fill-rule="evenodd" /><path transform="matrix(1 0 0 -1 0 842)" d="M31.8 397.97L43.08 397.97L43.08 397.97L43.08 417.29L43.08 417.29L31.8 417.29z" stroke="none" fill="#5568AF" fill-rule="evenodd" /><g clip-path="url(#86)"><path transform="matrix(1 0 0 -1 0 842)" d="M31.8 403.49L43.08 403.49L43.08 403.49L43.08 417.29L43.08 417.29L31.8 417.29z" stroke="none" fill="#5568AF" fill-rule="evenodd" /><g clip-path="url(#87)"></g></g><path transform="matrix(1 0 0 -1 0 842)" d="M43.08 397.97L127.104 397.97L127.104 397.97L127.104 417.29L127.104 417.29L43.08 417.29z" stroke="none" fill="#5568AF" fill-rule="evenodd" /><g clip-path="url(#88)"><path transform="matrix(1 0 0 -1 0 842)" d="M43.08 398.93L127.104 398.93L127.104 398.93L127.104 417.29L127.104 417.29L43.08 417.29z" stroke="none" fill="#5568AF" fill-rule="evenodd" /><g clip-path="url(#89)"></g><g clip-path="url(#90)"></g></g><g clip-path="url(#91)"><g clip-path="url(#92)"></g></g><g clip-path="url(#93)"><g clip-path="url(#94)"></g></g><g clip-path="url(#95)"><g clip-path="url(#96)"></g></g><path transform="matrix(1 0 0 -1 0 842)" d="M42.48 397.25L43.92 397.25L43.92 397.25L43.92 397.97L43.92 397.97L42.48 397.97z" stroke="none" fill="#5568AF" fill-rule="evenodd" /><path transform="matrix(1 0 0 -1 0 842)" d="M127.1 397.25L559.68 397.25L559.68 397.25L559.68 397.97L559.68 397.97L127.1 397.97z" stroke="none" fill="#5568AF" fill-rule="evenodd" /><path transform="matrix(1 0 0 -1 0 842)" d="M42.48 258.29L43.92 258.29L43.92 258.29L43.92 397.25L43.92 397.25L42.48 397.25z" stroke="none" fill="#5568AF" fill-rule="evenodd" /><path transform="matrix(1 0 0 -1 0 842)" d="M31.8 238.94L43.08 238.94L43.08 238.94L43.08 258.284L43.08 258.284L31.8 258.284z" stroke="none" fill="#5568AF" fill-rule="evenodd" /><g clip-path="url(#97)"><path transform="matrix(1 0 0 -1 0 842)" d="M31.8 244.46L43.08 244.46L43.08 244.46L43.08 258.284L43.08 258.284L31.8 258.284z" stroke="none" fill="#5568AF" fill-rule="evenodd" /><g clip-path="url(#98)"></g></g><path transform="matrix(1 0 0 -1 0 842)" d="M43.08 238.94L127.104 238.94L127.104 238.94L127.104 258.284L127.104 258.284L43.08 258.284z" stroke="none" fill="#5568AF" fill-rule="evenodd" /><g clip-path="url(#99)"><path transform="matrix(1 0 0 -1 0 842)" d="M43.08 240.02L127.104 240.02L127.104 240.02L127.104 258.284L127.104 258.284L43.08 258.284z" stroke="none" fill="#5568AF" fill-rule="evenodd" /><g clip-path="url(#100)"></g><g clip-path="url(#101)"></g></g><g clip-path="url(#102)"><g clip-path="url(#103)"></g></g><g clip-path="url(#104)"><g clip-path="url(#105)"></g></g><g clip-path="url(#106)"><g clip-path="url(#107)"></g></g><path transform="matrix(1 0 0 -1 0 842)" d="M31.8 238.22L42.48 238.22L42.48 238.22L42.48 238.94L42.48 238.94L31.8 238.94z" stroke="none" fill="#5568AF" fill-rule="evenodd" /><path transform="matrix(1 0 0 -1 0 842)" d="M42.48 238.22L43.2 238.22L43.2 238.22L43.2 238.94L43.2 238.94L42.48 238.94z" stroke="none" fill="#5568AF" fill-rule="evenodd" /><path transform="matrix(1 0 0 -1 0 842)" d="M43.2 238.22L43.92 238.22L43.92 238.22L43.92 238.94L43.92 238.94L43.2 238.94z" stroke="none" fill="#5568AF" fill-rule="evenodd" /><path transform="matrix(1 0 0 -1 0 842)" d="M43.92 238.22L44.64 238.22L44.64 238.22L44.64 238.94L44.64 238.94L43.92 238.94z" stroke="none" fill="#5568AF" fill-rule="evenodd" /><path transform="matrix(1 0 0 -1 0 842)" d="M44.64 238.22L127.104 238.22L127.104 238.22L127.104 238.94L127.104 238.94L44.64 238.94z" stroke="none" fill="#5568AF" fill-rule="evenodd" /><path transform="matrix(1 0 0 -1 0 842)" d="M127.1 238.22L127.82 238.22L127.82 238.22L127.82 238.94L127.82 238.94L127.1 238.94z" stroke="none" fill="#5568AF" fill-rule="evenodd" /><path transform="matrix(1 0 0 -1 0 842)" d="M127.82 238.22L559.68 238.22L559.68 238.22L559.68 238.94L559.68 238.94L127.82 238.94z" stroke="none" fill="#5568AF" fill-rule="evenodd" /><path transform="matrix(1 0 0 -1 0 842)" d="M42.48 134.66L43.92 134.66L43.92 134.66L43.92 238.22L43.92 238.22L42.48 238.22z" stroke="none" fill="#5568AF" fill-rule="evenodd" /><path transform="matrix(1 0 0 -1 0 842)" d="M31.8 115.34L43.08 115.34L43.08 115.34L43.08 134.66L43.08 134.66L31.8 134.66z" stroke="none" fill="#5568AF" fill-rule="evenodd" /><g clip-path="url(#108)"><path transform="matrix(1 0 0 -1 0 842)" d="M31.8 120.86L43.08 120.86L43.08 120.86L43.08 134.66L43.08 134.66L31.8 134.66z" stroke="none" fill="#5568AF" fill-rule="evenodd" /><g clip-path="url(#109)"></g></g><path transform="matrix(1 0 0 -1 0 842)" d="M43.08 115.34L127.104 115.34L127.104 115.34L127.104 134.66L127.104 134.66L43.08 134.66z" stroke="none" fill="#5568AF" fill-rule="evenodd" /><g clip-path="url(#110)"><path transform="matrix(1 0 0 -1 0 842)" d="M43.08 116.3L127.104 116.3L127.104 116.3L127.104 134.66L127.104 134.66L43.08 134.66z" stroke="none" fill="#5568AF" fill-rule="evenodd" /><g clip-path="url(#111)"></g><g clip-path="url(#112)"></g></g><g clip-path="url(#113)"><g clip-path="url(#114)"></g></g><g clip-path="url(#115)"><g clip-path="url(#116)"></g></g><g clip-path="url(#117)"><g clip-path="url(#118)"></g></g><path transform="matrix(1 0 0 -1 0 842)" d="M31.8 114.62L42.48 114.62L42.48 114.62L42.48 115.34L42.48 115.34L31.8 115.34z" stroke="none" fill="#5568AF" fill-rule="evenodd" /><path transform="matrix(1 0 0 -1 0 842)" d="M42.48 114.62L43.2 114.62L43.2 114.62L43.2 115.34L43.2 115.34L42.48 115.34z" stroke="none" fill="#5568AF" fill-rule="evenodd" /><path transform="matrix(1 0 0 -1 0 842)" d="M43.2 114.62L43.92 114.62L43.92 114.62L43.92 115.34L43.92 115.34L43.2 115.34z" stroke="none" fill="#5568AF" fill-rule="evenodd" /><path transform="matrix(1 0 0 -1 0 842)" d="M43.92 114.62L44.64 114.62L44.64 114.62L44.64 115.34L44.64 115.34L43.92 115.34z" stroke="none" fill="#5568AF" fill-rule="evenodd" /><path transform="matrix(1 0 0 -1 0 842)" d="M44.64 114.62L127.104 114.62L127.104 114.62L127.104 115.34L127.104 115.34L44.64 115.34z" stroke="none" fill="#5568AF" fill-rule="evenodd" /><path transform="matrix(1 0 0 -1 0 842)" d="M127.1 114.62L127.82 114.62L127.82 114.62L127.82 115.34L127.82 115.34L127.1 115.34z" stroke="none" fill="#5568AF" fill-rule="evenodd" /><path transform="matrix(1 0 0 -1 0 842)" d="M127.82 114.62L559.68 114.62L559.68 114.62L559.68 115.34L559.68 115.34L127.82 115.34z" stroke="none" fill="#5568AF" fill-rule="evenodd" /><path transform="matrix(1 0 0 -1 0 842)" d="M42.48 39L43.92 39L43.92 39L43.92 114.624L43.92 114.624L42.48 114.624z" stroke="none" fill="#5568AF" fill-rule="evenodd" /><g clip-path="url(#119)"></g><g clip-path="url(#120)"><g clip-path="url(#121)"><g clip-path="url(#122)"></g><g clip-path="url(#123)"></g><g clip-path="url(#124)"></g><g clip-path="url(#125)"></g><g clip-path="url(#126)"></g><g clip-path="url(#127)"></g><g clip-path="url(#128)"></g></g><g clip-path="url(#129)"><g clip-path="url(#130)"></g></g><g clip-path="url(#131)"><g clip-path="url(#132)"></g><g clip-path="url(#133)"></g><g clip-path="url(#134)"></g><g clip-path="url(#135)"></g><g clip-path="url(#136)"></g></g><g clip-path="url(#137)"><g clip-path="url(#138)"></g><g clip-path="url(#139)"></g><g clip-path="url(#140)"></g><g clip-path="url(#141)"></g><g clip-path="url(#142)"></g><g clip-path="url(#143)"></g><g clip-path="url(#144)"></g><g clip-path="url(#145)"></g><g clip-path="url(#146)"></g><g clip-path="url(#147)"></g></g><path transform="matrix(1 0 0 -1 0 842)" d="M26.04 719.5L217.01 719.5L217.01 719.5L217.01 720.22L217.01 720.22L26.04 720.22z" stroke="none" fill="#5568AF" fill-rule="evenodd" /><path transform="matrix(1 0 0 -1 0 842)" d="M217.01 719.5L217.73 719.5L217.73 719.5L217.73 720.22L217.73 720.22L217.01 720.22z" stroke="none" fill="#5568AF" fill-rule="evenodd" /><path transform="matrix(1 0 0 -1 0 842)" d="M217.73 719.5L423.22 719.5L423.22 719.5L423.22 720.22L423.22 720.22L217.73 720.22z" stroke="none" fill="#5568AF" fill-rule="evenodd" /><g clip-path="url(#148)"><g clip-path="url(#149)"></g><g clip-path="url(#150)"></g><g clip-path="url(#151)"></g><g clip-path="url(#152)"></g><g clip-path="url(#153)"></g><g clip-path="url(#154)"></g><g clip-path="url(#155)"></g></g><g clip-path="url(#156)"><g clip-path="url(#157)"></g><g clip-path="url(#158)"></g><g clip-path="url(#159)"></g><g clip-path="url(#160)"></g><g clip-path="url(#161)"></g><g clip-path="url(#162)"></g><g clip-path="url(#163)"></g><path transform="matrix(1 0 0 -1 0 842)" d="M275.57 679.42L401.5 679.42L401.5 679.42L401.5 680.02L401.5 680.02L275.57 680.02z" stroke="none" fill="#0000FF" fill-rule="evenodd" /></g><path transform="matrix(1 0 0 -1 0 842)" d="M26.04 698.5L217.01 698.5L217.01 698.5L217.01 699.22L217.01 699.22L26.04 699.22z" stroke="none" fill="#5568AF" fill-rule="evenodd" /><path transform="matrix(1 0 0 -1 0 842)" d="M217.01 698.5L217.73 698.5L217.73 698.5L217.73 699.22L217.73 699.22L217.01 699.22z" stroke="none" fill="#5568AF" fill-rule="evenodd" /><path transform="matrix(1 0 0 -1 0 842)" d="M217.73 698.5L423.22 698.5L423.22 698.5L423.22 699.22L423.22 699.22L217.73 699.22z" stroke="none" fill="#5568AF" fill-rule="evenodd" /><path transform="matrix(1 0 0 -1 0 842)" d="M25.32 677.02L217.01 677.02L217.01 677.02L217.01 677.74L217.01 677.74L25.32 677.74z" stroke="none" fill="#5568AF" fill-rule="evenodd" /><path transform="matrix(1 0 0 -1 0 842)" d="M216.29 677.02L217.01 677.02L217.01 677.02L217.01 677.74L217.01 677.74L216.29 677.74z" stroke="none" fill="#5568AF" fill-rule="evenodd" /><path transform="matrix(1 0 0 -1 0 842)" d="M217.01 677.02L423.22 677.02L423.22 677.02L423.22 677.74L423.22 677.74L217.01 677.74z" stroke="none" fill="#5568AF" fill-rule="evenodd" /></g><path transform="matrix(1 0 0 -1 0 842)" d="M43.2 107.99L31.8 113.99L31.8 113.99L43.2 113.99L43.2 113.99L43.2 107.99z" stroke="none" fill="#133E6A" fill-rule="evenodd" /><path transform="matrix(1 0 0 -1 0 842)" d="M43.2 231.59L31.8 237.59L31.8 237.59L43.2 237.59L43.2 237.59L43.2 231.59z" stroke="none" fill="#133E6A" fill-rule="evenodd" /><path transform="matrix(1 0 0 -1 0 842)" d="M43.1 391.34L31.8 397.24L31.8 397.24L43.1 397.24L43.1 397.24L43.1 391.34z" stroke="none" fill="#133E6A" fill-rule="evenodd" /><path transform="matrix(1 0 0 -1 0 842)" d="M43.2 538.09L31.8 544.09L31.8 544.09L43.2 544.09L43.2 544.09L43.2 538.09z" stroke="none" fill="#133E6A" fill-rule="evenodd" /><path transform="matrix(1 0 0 -1 0 842)" d="M43.1 640.84L31.8 646.84L31.8 646.84L43.1 646.84L43.1 646.84L43.1 640.84z" stroke="none" fill="#133E6A" fill-rule="evenodd" /></g></g></g></svg>